# xmcd CD database file
#
# Track frame offsets:
#	150
#	16090
#	37700
#	58180
#	76770
#	96664
#	115036
#	134169
#	157693
#	177359
#	196519
#
# Disc length: 2949 seconds
#
# Revision: 0
# Processed by: cddbd v1.5.2PL0 Copyright (c) Steve Scherf et al.
# Submitted via: cdripper 1,0,33,916
#
DISCID=7e0b830b
DTITLE=Kenny Chesney - Just Who I Am: Poets and Pirates
DYEAR=2007
DGENRE=Country
TTITLE0=Never Wanted Nothing More
TTITLE1=Don't Blink
TTITLE2=Shiftwork (w/George Strait)
TTITLE3=Just Not Today
TTITLE4=Wife and Kids
TTITLE5=Got a Little Crazy
TTITLE6=Better As a Memrory
TTITLE7=Dancin' for the Groceries
TTITLE8=Wild Ride (feat. Joe Walsh)
TTITLE9=Scare Me
TTITLE10=Demons
EXTD=YEAR: 2007
EXTT0=
EXTT1=
EXTT2=
EXTT3=
EXTT4=
EXTT5=
EXTT6=
EXTT7=
EXTT8=
EXTT9=
EXTT10=
PLAYORDER=
